<svg width="100" height="56" viewBox="0 0 100 56" fill="none" xmlns="http://www.w3.org/2000/svg">
<g clip-path="url(#clip0)">
<path d="M48.4861 31.5547C47.526 32.8064 46.1953 33.7543 44.4939 34.3984C42.7925 35.0425 40.8602 35.3646 38.697 35.3646C36.4731 35.3646 34.5043 34.8602 32.7908 33.8516C31.0772 32.8429 29.7526 31.4028 28.8168 29.5313C27.8932 27.6476 27.4132 25.454 27.3767 22.9505V20.8724C27.3767 16.862 28.3368 13.7326 30.2569 11.4844C32.1771 9.22396 34.8568 8.09375 38.296 8.09375C41.2491 8.09375 43.5946 8.82292 45.3325 10.2813C47.0703 11.7396 48.1154 13.842 48.4679 16.5885H43.947C43.4366 13.3924 41.5833 11.7943 38.3871 11.7943C36.3212 11.7943 34.7474 12.5417 33.6658 14.0365C32.5963 15.5191 32.0434 17.7005 32.0069 20.5807V22.6224C32.0069 25.4905 32.6085 27.7205 33.8116 29.3125C35.0269 30.8924 36.7101 31.6823 38.8611 31.6823C41.2187 31.6823 42.8958 31.1476 43.8924 30.0781V24.8828H38.4236V21.3828H48.4861V31.5547Z" fill="#6F6B6B"/>
<path d="M75.395 32.3594C75.1276 35.191 74.0825 37.4028 72.2595 38.9948C70.4366 40.5747 68.0121 41.3646 64.9861 41.3646C62.8715 41.3646 61.0061 40.8663 59.3897 39.8698C57.7856 38.8611 56.546 37.4332 55.671 35.5859C54.796 33.7387 54.3403 31.5938 54.3038 29.151V26.6719C54.3038 24.1684 54.7474 21.9627 55.6345 20.0547C56.5217 18.1467 57.7917 16.6762 59.4444 15.6432C61.1094 14.6102 63.0295 14.0938 65.2048 14.0938C68.1337 14.0938 70.4913 14.8898 72.2778 16.4818C74.0642 18.0738 75.1033 20.322 75.395 23.2266H70.8012C70.5825 21.3186 70.0234 19.9453 69.1241 19.1068C68.237 18.2561 66.9305 17.8307 65.2048 17.8307C63.1996 17.8307 61.6562 18.566 60.5746 20.0365C59.5052 21.4948 58.9583 23.6398 58.934 26.4714V28.8229C58.934 31.691 59.4444 33.8785 60.4653 35.3854C61.4983 36.8924 63.0052 37.6458 64.9861 37.6458C66.7969 37.6458 68.158 37.2387 69.0694 36.4245C69.9809 35.6102 70.5581 34.2552 70.8012 32.3594H75.395Z" fill="#6F6B6B"/>
<path d="M20.546 41.5625C16.2561 40.3594 14.0686 37.6189 13.9835 33.3411V29.4583C13.9835 26.724 12.8108 25.3568 10.4653 25.3568V22.112C12.8108 22.112 13.9835 20.7387 13.9835 17.9922V14.1276C14.02 11.9401 14.5851 10.1719 15.6788 8.82292C16.7847 7.47396 18.4071 6.49566 20.546 5.88802L21.421 8.44011C19.3186 9.12066 18.2309 10.98 18.158 14.0182V17.9557C18.158 20.6901 17.1068 22.6102 15.0043 23.7161C17.1068 24.8342 18.158 26.7726 18.158 29.5313V33.4141C18.2309 36.4523 19.3186 38.3116 21.421 38.9922L20.546 41.5625Z" fill="#6F6B6B"/>
<path d="M80.9366 44.9922C83.0755 44.2995 84.1693 42.4036 84.2179 39.3047V35.513C84.2179 32.7057 85.3238 30.7795 87.5356 29.7344C85.3238 28.6892 84.2179 26.7448 84.2179 23.901V20.1276C84.1693 17.0286 83.0755 15.1328 80.9366 14.4401L81.8116 11.888C84.0234 12.5078 85.6701 13.5165 86.7517 14.9141C87.8333 16.2995 88.3741 18.1163 88.3741 20.3646V24.0104C88.3741 26.7448 89.5529 28.112 91.9106 28.112V31.3568C89.5529 31.3568 88.3741 32.724 88.3741 35.4583V39.0495C88.3741 41.322 87.8272 43.151 86.7335 44.5365C85.6519 45.934 84.0113 46.9427 81.8116 47.5625L80.9366 44.9922Z" fill="#6F6B6B"/>
</g>
<defs>
<clipPath id="clip0">
<rect width="99.5556" height="56" fill="white"/>
</clipPath>
</defs>
</svg>
